<svg width="15" height="17" viewBox="0 0 15 17" fill="none" xmlns="http://www.w3.org/2000/svg">
<path fill-rule="evenodd" clip-rule="evenodd" d="M13 2.125C13 2.05596 12.944 2 12.875 2H2.125C2.05596 2 2 2.05596 2 2.125V3.875C2 3.94404 2.05596 4 2.125 4H12.875C12.944 4 13 3.94404 13 3.875V2.125ZM8 5.125C8 5.05596 8.05596 5 8.125 5H10H12.875C12.944 5 13 5.05596 13 5.125V6.875C13 6.94404 12.944 7 12.875 7H10.125C10.056 7 10 7.05596 10 7.125V12.875C10 12.944 10.056 13 10.125 13H12.875C12.944 13 13 13.056 13 13.125V14.875C13 14.944 12.944 15 12.875 15H10H8.125C8.05596 15 8 14.944 8 14.875V13V7V5.125ZM2 8.125C2 8.05596 2.05596 8 2.125 8H3.875C3.94404 8 4 8.05596 4 8.125V11.875C4 11.944 3.94404 12 3.875 12H2.125C2.05596 12 2 11.944 2 11.875V8.125ZM13 8.125C13 8.05596 12.944 8 12.875 8H11.125C11.056 8 11 8.05596 11 8.125V11.875C11 11.944 11.056 12 11.125 12H12.875C12.944 12 13 11.944 13 11.875V8.125ZM7 7V13V14.875C7 14.944 6.94404 15 6.875 15H5H2.125C2.05596 15 2 14.944 2 14.875V13.125C2 13.056 2.05596 13 2.125 13H4.875C4.94404 13 5 12.944 5 12.875V7.125C5 7.05596 4.94404 7 4.875 7H2.125C2.05596 7 2 6.94404 2 6.875V5.125C2 5.05596 2.05596 5 2.125 5H5H6.875C6.94404 5 7 5.05596 7 5.125V7Z" fill="#BF0040"/>
<rect x="0.5" y="0.5" width="14" height="16" rx="0.63" stroke="#BF0040"/>
</svg>
