<svg width="11" height="13" viewBox="0 0 11 13" fill="none" xmlns="http://www.w3.org/2000/svg">
<path fill-rule="evenodd" clip-rule="evenodd" d="M11 0.125C11 0.0559644 10.944 0 10.875 0H0.125C0.0559644 0 0 0.0559644 0 0.125V1.875C0 1.94404 0.0559643 2 0.125 2H10.875C10.944 2 11 1.94404 11 1.875V0.125ZM6 3.125C6 3.05596 6.05596 3 6.125 3H8H10.875C10.944 3 11 3.05596 11 3.125V4.875C11 4.94404 10.944 5 10.875 5H8.125C8.05596 5 8 5.05596 8 5.125V10.875C8 10.944 8.05596 11 8.125 11H10.875C10.944 11 11 11.056 11 11.125V12.875C11 12.944 10.944 13 10.875 13H8H6.125C6.05596 13 6 12.944 6 12.875V11V5V3.125ZM0 6.125C0 6.05596 0.0559644 6 0.125 6H1.875C1.94404 6 2 6.05596 2 6.125V9.875C2 9.94404 1.94404 10 1.875 10H0.125C0.0559644 10 0 9.94404 0 9.875V6.125ZM11 6.125C11 6.05596 10.944 6 10.875 6H9.125C9.05596 6 9 6.05596 9 6.125V9.875C9 9.94404 9.05596 10 9.125 10H10.875C10.944 10 11 9.94404 11 9.875V6.125ZM5 5V11V12.875C5 12.944 4.94404 13 4.875 13H3H0.125C0.0559644 13 0 12.944 0 12.875V11.125C0 11.056 0.0559645 11 0.125 11H2.875C2.94404 11 3 10.944 3 10.875V5.125C3 5.05596 2.94404 5 2.875 5H0.125C0.0559644 5 0 4.94404 0 4.875V3.125C0 3.05596 0.0559645 3 0.125 3H3H4.875C4.94404 3 5 3.05596 5 3.125V5Z" fill="#9E4F34"/>
</svg>
